{
  "accessors": [
    {
      "bufferView": 2,
      "componentType": 5126,
      "count": 40288,
      "max": [
        2.038891077041626,
        1.8494130373001099,
        6.669680118560791
      ],
      "min": [
        -3.533129930496216,
        -1.6077899932861328,
        0.8422189950942993
      ],
      "type": "VEC3"
    },
    {
      "bufferView": 2,
      "byteOffset": 483456,
      "componentType": 5126,
      "count": 40288,
      "max": [
        0.999934196472168,
        0.9999995231628418,
        0.9999594688415527
      ],
      "min": [
        -1.0,
        -0.999869167804718,
        -1.0
      ],
      "type": "VEC3"
    },
    {
      "bufferView": 1,
      "componentType": 5126,
      "count": 40288,
      "max": [
        0.5274940133094788,
        0.5266119837760925
      ],
      "min": [
        0.0,
        0.0
      ],
      "type": "VEC2"
    },
    {
      "bufferView": 0,
      "componentType": 5125,
      "count": 184755,
      "type": "SCALAR"
    },
    {
      "bufferView": 2,
      "byteOffset": 966912,
      "componentType": 5126,
      "count": 2507,
      "max": [
        1.182968020439148,
        0.7493770122528076,
        4.580496788024902
      ],
      "min": [
        -1.9775869846343994,
        -0.35708799958229065,
        2.335664987564087
      ],
      "type": "VEC3"
    },
    {
      "bufferView": 2,
      "byteOffset": 996996,
      "componentType": 5126,
      "count": 2507,
      "max": [
        0.9956330060958862,
        0.9975581765174866,
        0.9996933341026306
      ],
      "min": [
        -0.9951862096786499,
        -0.9998821020126343,
        -0.9999778270721436
      ],
      "type": "VEC3"
    },
    {
      "bufferView": 1,
      "byteOffset": 322304,
      "componentType": 5126,
      "count": 2507,
      "max": [
        1.0,
        1.0
      ],
      "min": [
        0.0,
        0.05583599954843521
      ],
      "type": "VEC2"
    },
    {
      "bufferView": 0,
      "byteOffset": 739020,
      "componentType": 5125,
      "count": 11064,
      "type": "SCALAR"
    },
    {
      "bufferView": 2,
      "byteOffset": 1027080,
      "componentType": 5126,
      "count": 3157,
      "max": [
        1.2083139419555664,
        0.8295140266418457,
        4.401548862457275
      ],
      "min": [
        -2.012526035308838,
        -0.4197179973125458,
        2.1428449153900146
      ],
      "type": "VEC3"
    },
    {
      "bufferView": 2,
      "byteOffset": 1064964,
      "componentType": 5126,
      "count": 3157,
      "max": [
        0.9998061060905457,
        0.9953984618186951,
        0.9998801946640015
      ],
      "min": [
        -0.9994421005249023,
        -0.9911481142044067,
        -0.9998714327812195
      ],
      "type": "VEC3"
    },
    {
      "bufferView": 1,
      "byteOffset": 342360,
      "componentType": 5126,
      "count": 3157,
      "max": [
        1.0,
        1.0
      ],
      "min": [
        0.0,
        0.0
      ],
      "type": "VEC2"
    },
    {
      "bufferView": 0,
      "byteOffset": 783276,
      "componentType": 5125,
      "count": 15840,
      "type": "SCALAR"
    },
    {
      "bufferView": 2,
      "byteOffset": 1102848,
      "componentType": 5126,
      "count": 992,
      "max": [
        -0.683014988899231,
        0.7383459806442261,
        4.898056983947754
      ],
      "min": [
        -1.111346960067749,
        -0.28606000542640686,
        4.709039211273193
      ],
      "type": "VEC3"
    },
    {
      "bufferView": 2,
      "byteOffset": 1114752,
      "componentType": 5126,
      "count": 992,
      "max": [
        0.9844066500663757,
        0.9229096174240112,
        0.9825178384780884
      ],
      "min": [
        -0.9977900981903076,
        -0.9977661967277527,
        -0.9889266490936279
      ],
      "type": "VEC3"
    },
    {
      "bufferView": 1,
      "byteOffset": 367616,
      "componentType": 5126,
      "count": 992,
      "max": [
        0.5936449766159058,
        0.563480019569397
      ],
      "min": [
        0.5400050282478333,
        0.42958199977874756
      ],
      "type": "VEC2"
    },
    {
      "bufferView": 0,
      "byteOffset": 846636,
      "componentType": 5125,
      "count": 5622,
      "type": "SCALAR"
    }
  ],
  "asset": {
    "extras": {
      "author": "lamujer (https://sketchfab.com/lamujer)",
      "license": "CC-BY-4.0 (http://creativecommons.org/licenses/by/4.0/)",
      "source": "https://sketchfab.com/3d-models/tomato-d434481aef864a5c84c72a8eb1378753",
      "title": "Tomato"
    },
    "generator": "Sketchfab-12.48.0",
    "version": "2.0"
  },
  "bufferViews": [
    {
      "buffer": 0,
      "byteLength": 869124,
      "name": "floatBufferViews",
      "target": 34963
    },
    {
      "buffer": 0,
      "byteLength": 375552,
      "byteOffset": 869124,
      "byteStride": 8,
      "name": "floatBufferViews",
      "target": 34962
    },
    {
      "buffer": 0,
      "byteLength": 1126656,
      "byteOffset": 1244676,
      "byteStride": 12,
      "name": "floatBufferViews",
      "target": 34962
    }
  ],
  "buffers": [
    {
      "byteLength": 2371332,
      "uri": "scene.bin"
    }
  ],
  "images": [
    {
      "uri": "textures/LEAF_baseColor.png"
    },
    {
      "uri": "textures/Tomato_Leaf_little_baseColor.png"
    }
  ],
  "materials": [
    {
      "doubleSided": true,
      "name": "LEAF",
      "pbrMetallicRoughness": {
        "baseColorTexture": {
          "index": 0
        },
        "metallicFactor": 0.0,
        "roughnessFactor": 0.6
      }
    },
    {
      "doubleSided": true,
      "name": "Material.002",
      "pbrMetallicRoughness": {
        "baseColorFactor": [
          0.007874636162220743,
          0.0177319702793015,
          0.0019881742426207816,
          1.0
        ],
        "metallicFactor": 0.0,
        "roughnessFactor": 0.6
      }
    },
    {
      "doubleSided": true,
      "name": "Tomaat_Rood",
      "pbrMetallicRoughness": {
        "baseColorFactor": [
          0.2482802702197365,
          0.007572977332543398,
          0.007572977332543398,
          1.0
        ],
        "metallicFactor": 0.14763420462214766,
        "roughnessFactor": 0.6
      }
    },
    {
      "doubleSided": true,
      "name": "Tomato_Leaf_little",
      "pbrMetallicRoughness": {
        "baseColorTexture": {
          "index": 1
        },
        "metallicFactor": 0.0,
        "roughnessFactor": 0.6
      }
    }
  ],
  "meshes": [
    {
      "name": "Object_0",
      "primitives": [
        {
          "attributes": {
            "NORMAL": 1,
            "POSITION": 0,
            "TEXCOORD_0": 2
          },
          "indices": 3,
          "material": 0,
          "mode": 4
        }
      ]
    },
    {
      "name": "Object_1",
      "primitives": [
        {
          "attributes": {
            "NORMAL": 5,
            "POSITION": 4,
            "TEXCOORD_0": 6
          },
          "indices": 7,
          "material": 1,
          "mode": 4
        }
      ]
    },
    {
      "name": "Object_2",
      "primitives": [
        {
          "attributes": {
            "NORMAL": 9,
            "POSITION": 8,
            "TEXCOORD_0": 10
          },
          "indices": 11,
          "material": 2,
          "mode": 4
        }
      ]
    },
    {
      "name": "Object_3",
      "primitives": [
        {
          "attributes": {
            "NORMAL": 13,
            "POSITION": 12,
            "TEXCOORD_0": 14
          },
          "indices": 15,
          "material": 3,
          "mode": 4
        }
      ]
    }
  ],
  "nodes": [
    {
      "children": [
        1
      ],
      "matrix": [
        0.20000000298023224,
        0.0,
        0.0,
        0.0,
        0.0,
        4.440892164675075e-17,
        -0.20000000298023224,
        0.0,
        0.0,
        0.20000000298023224,
        4.440892164675075e-17,
        0.0,
        0.0,
        0.0,
        0.0,
        1.0
      ],
      "name": "Sketchfab_model"
    },
    {
      "children": [
        2,
        3,
        4,
        5
      ],
      "name": "Tomato.obj.cleaner.materialmerger.gles"
    },
    {
      "mesh": 0,
      "name": "Object_2"
    },
    {
      "mesh": 1,
      "name": "Object_3"
    },
    {
      "mesh": 2,
      "name": "Object_4"
    },
    {
      "mesh": 3,
      "name": "Object_5"
    }
  ],
  "samplers": [
    {
      "magFilter": 9729,
      "minFilter": 9987,
      "wrapS": 10497,
      "wrapT": 10497
    }
  ],
  "scene": 0,
  "scenes": [
    {
      "name": "Sketchfab_Scene",
      "nodes": [
        0
      ]
    }
  ],
  "textures": [
    {
      "sampler": 0,
      "source": 0
    },
    {
      "sampler": 0,
      "source": 1
    }
  ]
}
